<?xml version="1.0" standalone="no"?>
<!DOCTYPE svg PUBLIC "-//W3C//DTD SVG 20010904//EN"
 "http://www.w3.org/TR/2001/REC-SVG-20010904/DTD/svg10.dtd">
<svg version="1.0" xmlns="http://www.w3.org/2000/svg"
 width="128.000000pt" height="128.000000pt" viewBox="0 0 128.000000 128.000000"
 preserveAspectRatio="xMidYMid meet">
<metadata>
Created by potrace 1.11, written by Peter Selinger 2001-2013
</metadata>
<g transform="translate(0.000000,128.000000) scale(0.100000,-0.100000)"
fill="#000000" stroke="none">
<path d="M880 1108 c-80 -22 -153 -41 -162 -41 -10 -1 -18 -4 -18 -7 0 -4 -6
-7 -12 -7 -29 0 -223 -55 -226 -64 -2 -5 -8 -6 -13 -3 -6 3 -17 0 -26 -8 -14
-11 -15 -11 -9 0 6 10 1 10 -22 -2 -16 -8 -32 -12 -36 -9 -3 4 -6 2 -6 -3 0
-5 -10 -11 -22 -11 -13 -1 -28 -9 -34 -17 -6 -9 -14 -13 -18 -9 -4 4 -4 -1 0
-11 7 -18 8 -17 18 1 6 11 17 18 24 16 6 -3 12 1 12 9 0 10 3 9 10 -2 7 -11
10 -11 10 -2 0 7 4 11 9 8 5 -4 12 0 14 6 4 9 6 10 6 1 1 -14 -11 -23 -41 -28
-12 -3 -26 -9 -31 -14 -13 -13 2 -34 19 -27 7 3 16 1 19 -5 4 -5 3 -9 -2 -8
-33 6 -49 -25 -26 -51 11 -14 9 -16 -12 -16 -14 0 -21 4 -18 11 4 5 3 7 -2 3
-4 -4 -15 -2 -24 4 -15 12 -15 11 0 -7 8 -11 14 -30 13 -42 -1 -24 10 -31 21
-13 3 6 1 10 -5 10 -6 0 -8 5 -5 10 10 16 21 12 22 -9 1 -11 -9 -23 -23 -30
-14 -6 -23 -8 -20 -3 2 4 1 14 -4 22 -6 9 -7 -3 -5 -32 4 -41 2 -46 -13 -41
-22 8 -13 -1 17 -17 22 -11 23 -11 17 6 -4 10 -4 15 0 11 4 -4 12 1 19 10 9
13 14 13 20 3 5 -8 4 -11 -2 -7 -12 7 -26 -20 -18 -33 3 -5 -6 -7 -20 -6 -32
4 -51 -17 -30 -34 9 -7 15 -8 15 -2 0 6 -5 12 -12 14 -9 3 -9 6 0 12 7 4 12 2
12 -4 0 -6 4 -8 10 -5 6 4 7 -1 3 -12 -6 -16 -5 -17 13 -3 18 14 18 14 5 -2
-7 -10 -17 -15 -22 -12 -5 3 -9 0 -9 -6 0 -6 -3 -9 -8 -6 -4 2 -16 -2 -27 -10
-10 -8 -14 -14 -9 -14 6 0 14 3 17 7 4 3 19 8 34 9 18 2 23 0 15 -5 -8 -4 -15
-20 -16 -35 -3 -21 0 -26 13 -21 12 5 13 4 4 -6 -10 -10 -15 -9 -28 1 -15 13
-21 35 -7 26 5 -3 9 1 9 9 0 20 -13 19 -21 -2 -4 -9 -2 -21 4 -27 12 -12 13
-29 1 -22 -5 4 -8 -2 -6 -11 1 -10 -2 -24 -8 -31 -7 -9 -2 -8 17 2 15 7 34 22
42 32 14 18 15 18 5 -2 -6 -12 -7 -25 -3 -29 4 -5 1 -5 -6 -1 -12 7 -38 -41
-27 -52 3 -3 5 -1 5 4 0 5 11 10 24 10 25 2 26 -4 12 -64 -4 -20 -3 -22 9 -12
8 7 12 16 9 21 -3 5 0 17 5 26 10 17 10 10 2 -70 -1 -5 -4 -6 -9 -4 -13 9 -6
-71 9 -89 12 -16 12 -17 -1 -9 -11 6 -10 3 3 -12 9 -11 17 -24 17 -29 0 -5 -4
-2 -10 6 -11 19 -19 10 -22 -23 -2 -20 -7 -26 -19 -22 -10 3 -20 2 -22 -2 -8
-13 83 -15 98 -3 8 7 18 9 23 6 6 -3 15 0 21 8 9 10 8 15 -3 19 -10 4 -14 17
-13 36 1 16 5 27 8 25 9 -5 19 21 19 47 0 10 4 19 9 19 5 0 7 -10 4 -22 -4
-22 -4 -21 10 2 7 14 12 35 10 48 -2 14 0 21 6 18 13 -8 11 -47 -3 -65 -8 -11
-8 -13 2 -7 7 4 12 2 12 -4 0 -7 8 -9 20 -5 14 5 20 2 20 -9 0 -9 6 -16 13
-16 8 0 8 -3 2 -8 -13 -9 -16 -74 -4 -66 5 3 9 0 9 -5 0 -6 -5 -11 -11 -11 -6
0 -8 -7 -5 -15 3 -8 9 -23 12 -32 5 -17 5 -17 -6 0 -6 9 -15 15 -20 12 -5 -3
-2 -14 8 -23 16 -17 18 -17 30 2 12 20 13 20 6 -4 -5 -20 -4 -23 7 -13 7 7 21
13 31 13 10 0 18 5 18 10 0 6 -4 10 -10 10 -5 0 -10 5 -10 11 0 5 4 7 10 4 5
-3 11 1 11 9 2 17 5 33 9 41 3 7 7 22 9 36 0 5 5 8 10 5 5 -4 7 3 4 14 -3 11
0 20 6 20 6 0 11 -4 11 -10 0 -5 5 -10 11 -10 8 0 9 4 0 13 -6 8 -8 17 -4 21
4 4 -1 4 -11 0 -13 -5 -17 -4 -12 4 9 15 45 11 39 -5 -3 -7 -1 -13 5 -13 6 0
12 4 14 9 2 5 90 -19 197 -55 107 -35 200 -64 205 -64 8 0 11 147 11 491 l0
490 -22 -4 c-21 -4 -28 4 -24 26 2 12 -29 6 -179 -35z m-470 -162 c0 -3 -4 -8
-10 -11 -5 -3 -10 -1 -10 4 0 6 5 11 10 11 6 0 10 -2 10 -4z m-60 -100 c0 -3
-4 -8 -10 -11 -5 -3 -10 -1 -10 4 0 6 5 11 10 11 6 0 10 -2 10 -4z m-45 -116
c-3 -5 -15 -15 -25 -20 -16 -8 -18 -8 -14 5 3 8 10 13 14 10 5 -3 11 -1 15 5
3 5 8 10 11 10 3 0 2 -4 -1 -10z m-40 -240 c-3 -5 -11 -10 -16 -10 -6 0 -7 5
-4 10 3 6 11 10 16 10 6 0 7 -4 4 -10z m25 -44 c0 -3 -4 -8 -10 -11 -5 -3 -10
-1 -10 4 0 6 5 11 10 11 6 0 10 -2 10 -4z m153 -126 c3 -11 1 -18 -4 -14 -5 3
-9 12 -9 20 0 20 7 17 13 -6z m54 6 c-3 -8 -1 -17 6 -19 9 -3 9 -8 -2 -20 -15
-18 -36 -13 -24 6 8 12 9 17 12 37 0 6 4 10 7 10 3 0 4 -6 1 -14z m-130 -138
c-2 -17 -9 -34 -16 -36 -8 -3 -10 4 -5 25 13 53 27 61 21 11z m208 -20 c-1
-12 -6 -23 -12 -25 -10 -4 -11 16 -3 37 1 3 2 9 1 13 -1 5 2 6 7 3 5 -3 8 -15
7 -28z"/>
<path d="M270 881 c0 -5 6 -11 13 -14 9 -3 9 -7 0 -18 -10 -12 -8 -17 10 -29
20 -12 21 -12 9 3 -11 12 -11 20 -2 38 8 14 8 19 1 15 -6 -4 -11 -2 -11 3 0 6
-4 11 -10 11 -5 0 -10 -4 -10 -9z"/>
<path d="M265 399 c-3 -4 2 -6 10 -5 21 3 28 13 10 13 -9 0 -18 -4 -20 -8z"/>
<path d="M735 231 c-3 -5 -2 -12 3 -15 5 -3 9 1 9 9 0 17 -3 19 -12 6z"/>
<path d="M455 220 c-3 -5 -1 -10 4 -10 6 0 11 5 11 10 0 6 -2 10 -4 10 -3 0
-8 -4 -11 -10z"/>
<path d="M480 86 c0 -2 7 -7 16 -10 8 -3 12 -2 9 4 -6 10 -25 14 -25 6z"/>
</g>
</svg>
